<svg width="18" height="18" viewBox="0 0 18 18" fill="none" xmlns="http://www.w3.org/2000/svg">
<g clip-path="url(#clip0_0_1)">
<path d="M11.7998 15.2C12.3521 15.2 12.7998 15.6477 12.7998 16.2C12.7998 16.7523 12.3521 17.2 11.7998 17.2H1.7998C1.24752 17.2 0.799805 16.7523 0.799805 16.2C0.799805 15.6477 1.24752 15.2 1.7998 15.2H11.7998Z" fill="black"/>
<path fill-rule="evenodd" clip-rule="evenodd" d="M6.6583 6.98955C6.76766 6.97214 6.87943 6.97513 6.98799 6.99834C7.14302 7.0315 7.28008 7.11659 7.40303 7.18809L9.50088 8.40811C9.62401 8.47972 9.69979 8.61137 9.6998 8.75381V10.8946C9.69883 11.0059 9.69236 11.1238 9.65605 11.2358C9.61731 11.3555 9.55385 11.4656 9.46992 11.5593C9.36506 11.6762 9.22474 11.7525 9.10303 11.8232L7.00088 13.0458C6.87658 13.1181 6.72303 13.1181 6.59873 13.0458L4.49658 11.8232C4.37487 11.7525 4.23455 11.6762 4.12969 11.5593C4.04575 11.4656 3.9823 11.3555 3.94355 11.2358C3.90725 11.1238 3.90077 11.0059 3.8998 10.8946V8.75381C3.89982 8.61137 3.9756 8.47972 4.09873 8.40811L6.19658 7.18809C6.31953 7.11659 6.45659 7.0315 6.61162 6.99834L6.6583 6.98955ZM4.6998 10.7859C4.6998 10.8744 4.69997 10.9236 4.70215 10.9604C4.7032 10.9781 4.70448 10.987 4.70508 10.9903C4.70928 11.0029 4.71591 11.0144 4.72461 11.0243C4.72714 11.0265 4.73413 11.0321 4.74912 11.0421C4.77981 11.0625 4.82229 11.0873 4.89873 11.1317L6.3998 12.0046V10.2475L4.6998 9.4001V10.7859ZM7.1998 10.2475V12.0046L8.70088 11.1317C8.77732 11.0873 8.8198 11.0625 8.85049 11.0421C8.86537 11.0322 8.87232 11.0265 8.8749 11.0243C8.88361 11.0144 8.89022 11.0029 8.89443 10.9903C8.89503 10.987 8.89641 10.9781 8.89746 10.9604C8.89964 10.9236 8.8998 10.8744 8.8998 10.7859V9.4001L7.1998 10.2475ZM6.81924 7.78028C6.80638 7.77773 6.79313 7.77772 6.78027 7.78028C6.78458 7.77918 6.779 7.77968 6.75225 7.79317C6.719 7.80993 6.67594 7.83479 6.59873 7.87969L5.14199 8.72676L6.7998 9.55303L8.45752 8.72676L7.00088 7.87969C6.92367 7.83479 6.88061 7.80993 6.84736 7.79317C6.8208 7.77977 6.8151 7.77921 6.81924 7.78028Z" fill="black"/>
<path fill-rule="evenodd" clip-rule="evenodd" d="M15.1998 0.800003C16.3044 0.800003 17.1998 1.69543 17.1998 2.8V8.8C17.1998 9.90457 16.3044 10.8 15.1998 10.8H14.5498V11.85C14.5498 12.0157 14.6841 12.15 14.8498 12.15H15.0998C15.8178 12.15 16.3998 12.732 16.3998 13.45V13.8C16.3998 14.518 15.8178 15.1 15.0998 15.1H12.8998C12.6237 15.1 12.3998 14.8761 12.3998 14.6C12.3998 14.3239 12.6237 14.1 12.8998 14.1H15.0998C15.2655 14.1 15.3998 13.9657 15.3998 13.8V13.45C15.3998 13.2843 15.2655 13.15 15.0998 13.15H14.8498C14.1318 13.15 13.5498 12.568 13.5498 11.85V10.8H12.7998V12.2C12.7998 13.5807 11.6805 14.7 10.2998 14.7H3.2998C1.91909 14.7 0.799805 13.5807 0.799805 12.2V7.7C0.799805 6.31929 1.91909 5.2 3.2998 5.2H10.1998V2.8C10.1998 1.69543 11.0952 0.800003 12.1998 0.800003H15.1998ZM3.2998 6.7C2.74752 6.7 2.2998 7.14772 2.2998 7.7V12.2L2.30107 12.2515C2.32699 12.7628 2.73702 13.1728 3.24834 13.1987L3.2998 13.2H10.2998L10.3513 13.1987C10.8796 13.1719 11.2998 12.735 11.2998 12.2V10.5863C10.6473 10.257 10.1998 9.58082 10.1998 8.8V6.7H3.2998ZM12.1998 2.3C11.9237 2.3 11.6998 2.52386 11.6998 2.8V8.8L11.7005 8.82569C11.7029 8.87251 11.7118 8.9176 11.7262 8.96016C11.7273 8.96335 11.7283 8.96657 11.7294 8.96973C11.7337 8.98154 11.7384 8.99311 11.7436 9.00449C11.8136 9.16048 11.9611 9.2739 12.1372 9.2959C12.1439 9.29673 12.1506 9.29748 12.1573 9.29805C12.1713 9.29923 12.1855 9.3 12.1998 9.3H15.1998C15.4673 9.3 15.6858 9.08989 15.6991 8.82569L15.6998 8.8V2.8C15.6998 2.52386 15.4759 2.3 15.1998 2.3H12.1998Z" fill="black"/>
</g>
<defs>
<clipPath id="clip0_0_1">
<rect width="18" height="18" fill="white"/>
</clipPath>
</defs>
</svg>
