<svg width="1024" height="1024" viewBox="0 0 1024 1024" fill="none" xmlns="http://www.w3.org/2000/svg">
<path d="M321.28 456.64V563.51C321.28 570.743 321.28 574.36 322.329 577.601C323.256 580.468 324.773 583.11 326.783 585.356C329.054 587.895 332.178 589.717 338.427 593.362L448 657.28L557.574 593.362C563.822 589.717 566.946 587.895 569.217 585.356C571.227 583.11 572.745 580.468 573.672 577.601C574.72 574.36 574.72 570.743 574.72 563.51V456.64L465.414 392.878C459.073 389.179 455.903 387.33 452.529 386.606C449.544 385.966 446.457 385.966 443.472 386.606C440.097 387.33 436.927 389.179 430.586 392.878L321.28 456.64ZM574.72 456.64L448 520M448 657.28V520M321.28 456.64L448 520" stroke="#019FCB" stroke-width="31.68" stroke-linecap="round" stroke-linejoin="round"/>
</svg>
