<svg width="1024" height="1024" viewBox="0 0 1024 1024" fill="none" xmlns="http://www.w3.org/2000/svg">
<path d="M429.771 661.972C429.737 652.307 437.544 644.445 447.209 644.411C456.874 644.377 464.736 652.184 464.77 661.849L464.988 723.624C465.01 729.944 470.127 735.061 476.447 735.084L496.856 735.157C522.471 735.25 543.187 756.041 543.188 781.657L543.188 820.982C543.188 827.317 548.312 832.46 554.647 832.483L809.147 833.396C815.515 833.418 820.688 828.263 820.688 821.896L820.689 782.78C820.689 776.444 815.565 771.302 809.23 771.279L786.476 771.198C760.86 771.106 740.143 750.313 740.143 724.697L740.144 661.91C740.144 652.245 747.979 644.41 757.644 644.41C767.309 644.41 775.144 652.246 775.144 661.911L775.143 724.698C775.143 731.033 780.267 736.175 786.602 736.198L809.356 736.28C834.972 736.372 855.689 757.164 855.689 782.779L855.688 821.897C855.688 847.643 834.767 868.488 809.021 868.396L554.521 867.482C528.905 867.39 508.188 846.598 508.188 820.982L508.188 781.657C508.188 775.322 503.064 770.18 496.729 770.157L476.321 770.084C450.769 769.992 430.078 749.299 429.988 723.748L429.771 661.972Z" fill="#DEDEDE"/>
</svg>
